<svg width="45" height="51" viewBox="0 0 45 51" fill="none" xmlns="http://www.w3.org/2000/svg">
<path d="M16.402 26.9872C15.8071 26.5781 15.729 26.1319 15.729 25.7657C15.729 25.4031 15.8071 24.7989 16.402 24.3898C23.6586 19.0632 42.8011 8.01382 43.8441 6.99311C45.3873 5.47971 44.4261 3.40296 42.6747 2.19818C40.9493 1.00828 39.739 0.679199 38.4487 0.679199C37.5693 0.679199 5.8268 17.8844 3.18298 19.6209C0.641431 21.2868 0 21.8297 0 24.6799L0 26.8143C0 29.6589 0.641431 30.0697 3.18113 31.7356C5.82865 33.474 37.573 50.6792 38.4524 50.6792C39.7464 50.6792 40.953 50.3501 42.6784 49.1602C44.4298 47.9554 45.3947 45.8787 43.8478 44.3653C42.8048 43.3446 23.6623 32.312 16.4076 26.9853L16.402 26.9872Z" fill="#023E74"/>
</svg>
