<svg width="45" height="50" viewBox="0 0 45 50" fill="none" xmlns="http://www.w3.org/2000/svg">
<path d="M28.221 23.692C28.816 24.1011 28.894 24.5473 28.894 24.9135C28.894 25.2761 28.816 25.8803 28.221 26.2894C20.9645 31.616 1.82194 42.6654 0.778919 43.6861C-0.764233 45.1995 0.196987 47.2762 1.94837 48.481C3.67373 49.6709 4.88408 50 6.17438 50C7.05379 50 38.7963 32.7948 41.4401 31.0583C43.9816 29.3924 44.623 28.8495 44.623 25.9993V23.8649C44.623 21.0203 43.9816 20.6095 41.4419 18.9436C38.7944 17.2052 7.05007 0 6.17066 0C4.87664 0 3.67001 0.329082 1.94465 1.51898C0.193268 2.72376 -0.771667 4.80051 0.775204 6.31391C1.81823 7.33462 20.9608 18.3672 28.2154 23.6939L28.221 23.692Z" fill="#023E74"/>
</svg>
